<svg width="28" height="28" viewBox="0 0 28 28" fill="none" xmlns="http://www.w3.org/2000/svg">
  <path d="M12 1.155a4 4 0 0 1 4 0l8.124 4.69a4 4 0 0 1 2 3.464v9.382a4 4 0 0 1-2 3.464L16 26.845a4 4 0 0 1-4 0l-8.124-4.69a4 4 0 0 1-2-3.464V9.309a4 4 0 0 1 2-3.464L12 1.155Z" fill="#1F57C3"/>
  <path d="m14.761 7.542 1.188 3.201 3.285.184a.78.78 0 0 1 .448.173.855.855 0 0 1 .277.41.9.9 0 0 1 .01.504.858.858 0 0 1-.261.422L17.15 14.6l.854 3.328a.907.907 0 0 1-.025.507.857.857 0 0 1-.291.404.785.785 0 0 1-.919.02L14 16.984l-2.764 1.862a.784.784 0 0 1-.916-.012.855.855 0 0 1-.294-.4.906.906 0 0 1-.031-.505l.847-3.314-2.55-2.18a.858.858 0 0 1-.26-.421.9.9 0 0 1 .01-.504.853.853 0 0 1 .276-.41.782.782 0 0 1 .448-.173l3.285-.184 1.188-3.201a.86.86 0 0 1 .302-.394.79.79 0 0 1 .918 0 .86.86 0 0 1 .302.394Z" stroke="#fff" stroke-width="1.5" stroke-linecap="round" stroke-linejoin="round"/>
</svg>
